<?xml version="1.0" encoding="UTF-8" standalone="no"?>
<svg
   viewBox="0 0 24 24"
   aria-hidden="true"
   class="r-1kihuf0 r-o6sn0f r-4qtqp9 r-yyyyoo r-1xvli5t r-dnmrzs r-m2pi6t r-bnwqim r-1plcrui r-lrvibr"
   version="1.1"
   id="svg6"
   sodipodi:docname="green_check.svg"
   inkscape:version="1.1.1 (3bf5ae0d25, 2021-09-20)"
   xmlns:inkscape="http://www.inkscape.org/namespaces/inkscape"
   xmlns:sodipodi="http://sodipodi.sourceforge.net/DTD/sodipodi-0.dtd"
   xmlns="http://www.w3.org/2000/svg"
   xmlns:svg="http://www.w3.org/2000/svg">
  <defs
     id="defs10" />
  <sodipodi:namedview
     id="namedview8"
     pagecolor="#ffffff"
     bordercolor="#666666"
     borderopacity="1.0"
     inkscape:pageshadow="2"
     inkscape:pageopacity="0.0"
     inkscape:pagecheckerboard="0"
     showgrid="false"
     inkscape:zoom="17.333333"
     inkscape:cx="1.5288462"
     inkscape:cy="10.009615"
     inkscape:window-width="1920"
     inkscape:window-height="1017"
     inkscape:window-x="-8"
     inkscape:window-y="1072"
     inkscape:window-maximized="1"
     inkscape:current-layer="svg6" />
  <g
     id="g4"
     style="fill:#00ba7c;fill-opacity:1">
    <path
       d="M12 1.25C6.072 1.25 1.25 6.072 1.25 12S6.072 22.75 12 22.75 22.75 17.928 22.75 12 17.928 1.25 12 1.25zm4.086 7.698L11.744 15.6s-.354.545-.416.607c-.146.146-.338.22-.53.22s-.384-.073-.53-.22l-2.7-2.704c-.293-.293-.293-.77 0-1.06.293-.294.768-.294 1.06 0l2.048 2.05 4.155-6.365c.227-.346.693-.443 1.04-.218.345.227.443.692.216 1.038z"
       id="path2"
       style="fill:#00ba7c;fill-opacity:1" />
  </g>
</svg>
