<?xml version="1.0" encoding="UTF-8" standalone="no"?>
<!-- Created with Inkscape (http://www.inkscape.org/) -->

<svg
   width="30.050049mm"
   height="31.423077mm"
   viewBox="0 0 30.050049 31.423077"
   version="1.1"
   id="svg1282"
   inkscape:version="1.1.1 (3bf5ae0d25, 2021-09-20)"
   sodipodi:docname="mobile_notification_icon.svg"
   xmlns:inkscape="http://www.inkscape.org/namespaces/inkscape"
   xmlns:sodipodi="http://sodipodi.sourceforge.net/DTD/sodipodi-0.dtd"
   xmlns="http://www.w3.org/2000/svg"
   xmlns:svg="http://www.w3.org/2000/svg">
  <sodipodi:namedview
     id="namedview1284"
     pagecolor="#ffffff"
     bordercolor="#666666"
     borderopacity="1.0"
     inkscape:pageshadow="2"
     inkscape:pageopacity="0.0"
     inkscape:pagecheckerboard="0"
     inkscape:document-units="mm"
     showgrid="false"
     inkscape:zoom="0.74118967"
     inkscape:cx="425.66702"
     inkscape:cy="337.97017"
     inkscape:window-width="1920"
     inkscape:window-height="1017"
     inkscape:window-x="-8"
     inkscape:window-y="1072"
     inkscape:window-maximized="1"
     inkscape:current-layer="layer1"
     fit-margin-top="0"
     fit-margin-left="0"
     fit-margin-right="0"
     fit-margin-bottom="0" />
  <defs
     id="defs1279" />
  <g
     inkscape:label="Layer 1"
     inkscape:groupmode="layer"
     id="layer1"
     transform="translate(-2.866,-2)">
    <path
       id="path1343"
       d="M 31.03607,13.064065 C 30.1923,6.7401712 24.557299,2 17.8828,2 11.208302,2 5.5634318,6.7464558 4.7262411,13.078206 L 2.866,27.138462 h 6.9639798 c 0.7615312,3.585373 4.0806882,6.284615 8.0594002,6.284615 3.978711,0 7.297868,-2.699242 8.0594,-6.284615 h 6.967268 z M 17.88938,30.280769 c -2.148078,0 -3.975423,-1.311913 -4.653071,-3.142307 h 9.30614 c -0.677648,1.830394 -2.504993,3.142307 -4.653069,3.142307 z M 6.5963508,23.996154 7.9894756,13.472565 C 8.6194247,8.7119692 12.858012,5.1423077 17.8828,5.1423077 c 5.024789,0 9.255152,3.5633769 9.890036,8.3192593 l 1.406282,10.534587 z"
       style="fill:#f9f9f9;stroke-width:1.60755" />
  </g>
</svg>
