<?xml version="1.0" encoding="UTF-8" standalone="no"?>
<!-- Created with Inkscape (http://www.inkscape.org/) -->

<svg
   width="19.957001mm"
   height="19.957001mm"
   viewBox="0 0 19.957001 19.957001"
   version="1.1"
   id="svg1193"
   inkscape:version="1.1.1 (3bf5ae0d25, 2021-09-20)"
   sodipodi:docname="mobile_search_icon.svg"
   xmlns:inkscape="http://www.inkscape.org/namespaces/inkscape"
   xmlns:sodipodi="http://sodipodi.sourceforge.net/DTD/sodipodi-0.dtd"
   xmlns="http://www.w3.org/2000/svg"
   xmlns:svg="http://www.w3.org/2000/svg">
  <sodipodi:namedview
     id="namedview1195"
     pagecolor="#ffffff"
     bordercolor="#666666"
     borderopacity="1.0"
     inkscape:pageshadow="2"
     inkscape:pageopacity="0.0"
     inkscape:pagecheckerboard="0"
     inkscape:document-units="mm"
     showgrid="false"
     inkscape:zoom="0.74118967"
     inkscape:cx="429.71457"
     inkscape:cy="447.25394"
     inkscape:window-width="1920"
     inkscape:window-height="1017"
     inkscape:window-x="-8"
     inkscape:window-y="1072"
     inkscape:window-maximized="1"
     inkscape:current-layer="layer1"
     fit-margin-top="0"
     fit-margin-left="0"
     fit-margin-right="0"
     fit-margin-bottom="0" />
  <defs
     id="defs1190" />
  <g
     inkscape:label="Layer 1"
     inkscape:groupmode="layer"
     id="layer1"
     transform="translate(-1.75,-1.75)">
    <path
       id="path1254"
       d="m 10.25,3.75 c -3.59,0 -6.5,2.91 -6.5,6.5 0,3.59 2.91,6.5 6.5,6.5 1.795,0 3.419,-0.726 4.596,-1.904 1.178,-1.177 1.904,-2.801 1.904,-4.596 0,-3.59 -2.91,-6.5 -6.5,-6.5 z m -8.5,6.5 c 0,-4.694 3.806,-8.5 8.5,-8.5 4.694,0 8.5,3.806 8.5,8.5 0,1.986 -0.682,3.815 -1.824,5.262 l 4.781,4.781 -1.414,1.414 -4.781,-4.781 c -1.447,1.142 -3.276,1.824 -5.262,1.824 -4.694,0 -8.5,-3.806 -8.5,-8.5 z"
       style="fill:#f9f9f9" />
  </g>
</svg>
