<?xml version="1.0" encoding="UTF-8" standalone="no"?>
<svg
   viewBox="0 0 24 24"
   aria-hidden="true"
   class="r-4qtqp9 r-yyyyoo r-18yzcnr r-dnmrzs r-bnwqim r-1plcrui r-lrvibr r-yc9v9c"
   style="color: rgb(239, 243, 244);"
   version="1.1"
   id="svg6"
   sodipodi:docname="show_password.svg"
   inkscape:version="1.1.1 (3bf5ae0d25, 2021-09-20)"
   xmlns:inkscape="http://www.inkscape.org/namespaces/inkscape"
   xmlns:sodipodi="http://sodipodi.sourceforge.net/DTD/sodipodi-0.dtd"
   xmlns="http://www.w3.org/2000/svg"
   xmlns:svg="http://www.w3.org/2000/svg">
  <defs
     id="defs10" />
  <sodipodi:namedview
     id="namedview8"
     pagecolor="#ffffff"
     bordercolor="#666666"
     borderopacity="1.0"
     inkscape:pageshadow="2"
     inkscape:pageopacity="0.0"
     inkscape:pagecheckerboard="0"
     showgrid="false"
     inkscape:zoom="34.666667"
     inkscape:cx="11.985577"
     inkscape:cy="12.014423"
     inkscape:window-width="1920"
     inkscape:window-height="1017"
     inkscape:window-x="-8"
     inkscape:window-y="1072"
     inkscape:window-maximized="1"
     inkscape:current-layer="svg6" />
  <g
     id="g4"
     style="fill:#eff3f4;fill-opacity:1">
    <path
       d="M12 21c-7.605 0-10.804-8.296-10.937-8.648L.932 12l.131-.352C1.196 11.295 4.394 3 12 3s10.804 8.296 10.937 8.648l.131.352-.131.352C22.804 12.705 19.606 21 12 21zm-8.915-9c.658 1.467 3.5 7 8.915 7s8.257-5.533 8.915-7c-.658-1.467-3.5-7-8.915-7s-8.257 5.533-8.915 7zM12 16c-2.206 0-4-1.794-4-4s1.794-4 4-4 4 1.794 4 4-1.794 4-4 4zm0-6c-1.103 0-2 .897-2 2s.897 2 2 2 2-.897 2-2-.897-2-2-2z"
       id="path2"
       style="fill:#eff3f4;fill-opacity:1" />
  </g>
</svg>
